<svg preserveAspectRatio="xMidYMid meet" focusable="false" width="0" height="0" visibility="hidden"
  style="pointer-events: none;position: absolute;" xmlns="http://www.w3.org/2000/svg">

  <symbol id="heart" viewBox="0 0 18 16" fill="none">
    <path
      d="M8.40898 14.1096L8.40754 14.1083C6.14265 12.0545 4.34337 10.4181 3.09862 8.8952C1.86487 7.38579 1.28076 6.11048 1.28076 4.79564C1.28076 2.65484 2.94194 1 5.0764 1C6.29127 1 7.47383 1.57073 8.24127 2.46491L9.00011 3.34905L9.75894 2.46491C10.5264 1.57073 11.709 1 12.9238 1C15.0583 1 16.7195 2.65484 16.7195 4.79564C16.7195 6.11048 16.1353 7.38579 14.9016 8.8952C13.6568 10.4181 11.8576 12.0545 9.59267 14.1083L9.59123 14.1096L9.00011 14.6477L8.40898 14.1096Z"
      stroke="currentColor" stroke-width="2" />
  </symbol>

  <symbol id="ps5" viewBox="0 0 24 24" fill="none">
    <path
      d="M22.4078 4H1.00013V9.80334C1.00013 9.80334 0.934979 12.0442 3.70634 12.0442H16.7918C17.3051 12.04 17.8136 12.1434 18.2845 12.3478C19.0151 12.6736 19.8366 13.3368 19.8366 14.6747C19.8366 15.8754 19.2548 16.5572 18.6789 16.9388C18.2021 17.2469 17.6456 17.4086 17.078 17.4042H1.00013V19.0331H18.9279C18.9279 19.0331 23 18.8679 23 14.6829C23 12.5549 21.7574 11.5008 20.6393 10.9843C19.9169 10.6524 19.1307 10.4821 18.3357 10.4851H5.3666C5.15048 10.488 4.93701 10.4372 4.74531 10.3374C4.46841 10.1873 4.16358 9.88944 4.16358 9.30305V5.60674H22.4078V4Z"
      fill="currentColor" />
  </symbol>

  <symbol id="plus" viewBox="0 0 24 24" fill="none">
    <path fill-rule="evenodd" clip-rule="evenodd"
      d="M11.0016 17.8849C11.0016 18.1189 10.9086 18.3434 10.7431 18.5089C10.5776 18.6744 10.3532 18.7673 10.1191 18.7673C9.88506 18.7673 9.6606 18.6744 9.4951 18.5089C9.32961 18.3434 9.23663 18.1189 9.23663 17.8849H11.0016ZM11.1488 15.9434C11.3916 15.9434 11.59 16.1422 11.59 16.3847C11.59 16.6272 11.3916 16.8259 11.1488 16.8259H9.08979C8.84693 16.8259 8.64855 16.6272 8.64855 16.3847C8.64855 16.1422 8.84693 15.9434 9.08979 15.9434H11.1488ZM7.49887 7.49816C8.94612 6.0509 11.2924 6.0509 12.7397 7.49816C13.29 8.04842 13.6531 8.75795 13.7776 9.52615C13.9021 10.2944 13.7817 11.0822 13.4333 11.7782L11.8629 14.6984C11.8327 14.7545 11.7878 14.8014 11.7332 14.8341C11.6785 14.8668 11.616 14.8841 11.5522 14.8841H8.68632C8.62261 14.8841 8.56009 14.8668 8.5054 14.8341C8.45071 14.8014 8.40589 14.7545 8.37569 14.6984L6.80489 11.7782C6.45645 11.0822 6.33594 10.2942 6.46044 9.52596C6.58494 8.75769 6.94813 8.0481 7.49851 7.49781L7.49887 7.49816ZM3.41196 9.41313C3.59919 9.41313 3.77876 9.48751 3.91116 9.6199C4.04356 9.7523 4.11793 9.93187 4.11793 10.1191C4.11793 10.3063 4.04356 10.4859 3.91116 10.6183C3.77876 10.7507 3.59919 10.8251 3.41196 10.8251H2.70598C2.51874 10.8251 2.33917 10.7507 2.20678 10.6183C2.07438 10.4859 2 10.3063 2 10.1191C2 9.93187 2.07438 9.7523 2.20678 9.6199C2.33917 9.48751 2.51874 9.41313 2.70598 9.41313H3.41196ZM15.8598 4.37809C15.9921 4.51048 16.0665 4.69002 16.0665 4.87722C16.0665 5.06442 15.9921 5.24395 15.8598 5.37634L15.3606 5.87547C15.2952 5.94119 15.2174 5.9933 15.1318 6.0288C15.0461 6.0643 14.9542 6.08249 14.8615 6.08232C14.7219 6.08229 14.5854 6.04087 14.4694 5.96329C14.3533 5.88572 14.2628 5.77547 14.2094 5.64649C14.156 5.51751 14.142 5.37558 14.1692 5.23865C14.1965 5.10173 14.2637 4.97595 14.3624 4.87722L14.8615 4.37809C14.9939 4.24574 15.1734 4.17139 15.3606 4.17139C15.5478 4.17139 15.7274 4.24574 15.8598 4.37809ZM5.37669 4.37809L5.87582 4.87722C5.94325 4.94234 5.99703 5.02024 6.03403 5.10637C6.07103 5.1925 6.09051 5.28514 6.09132 5.37888C6.09214 5.47262 6.07427 5.56558 6.03878 5.65235C6.00328 5.73911 5.95086 5.81793 5.88457 5.88422C5.81829 5.95051 5.73946 6.00293 5.6527 6.03842C5.56594 6.07392 5.47298 6.09178 5.37924 6.09097C5.2855 6.09015 5.19286 6.07068 5.10673 6.03368C5.02059 5.99668 4.94269 5.9429 4.87757 5.87547L4.37844 5.37634C4.31101 5.31122 4.25723 5.23332 4.22023 5.14718C4.18323 5.06105 4.16376 4.96841 4.16294 4.87467C4.16213 4.78094 4.17999 4.68797 4.21549 4.60121C4.25098 4.51445 4.3034 4.43562 4.36969 4.36934C4.43598 4.30305 4.5148 4.25063 4.60156 4.21513C4.68832 4.17964 4.78129 4.16177 4.87503 4.16259C4.96877 4.1634 5.06141 4.18288 5.14754 4.21988C5.23367 4.25688 5.31157 4.31066 5.37669 4.37809ZM10.1191 2C10.3063 2 10.4859 2.07438 10.6183 2.20678C10.7507 2.33917 10.8251 2.51874 10.8251 2.70598V3.41196C10.8251 3.59919 10.7507 3.77876 10.6183 3.91116C10.4859 4.04356 10.3063 4.11794 10.1191 4.11794C9.93187 4.11794 9.7523 4.04356 9.6199 3.91116C9.48751 3.77876 9.41313 3.59919 9.41313 3.41196V2.70598C9.41313 2.51874 9.48751 2.33917 9.6199 2.20678C9.7523 2.07438 9.93187 2 10.1191 2Z"
      fill="currentColor" />
    <path fill-rule="evenodd" clip-rule="evenodd"
      d="M18.0916 12.1755C18.08 12.1758 18.0685 12.1767 18.057 12.1784L15.9825 12.4579C15.9057 12.4684 15.836 12.5084 15.7883 12.5695L15.22 13.3033C15.1967 13.3332 15.1796 13.3674 15.1698 13.404C15.16 13.4405 15.1576 13.4787 15.1628 13.5162L15.3948 15.1879L13.687 15.4184C13.6102 15.4286 13.5405 15.4686 13.4929 15.5296C13.4816 15.5441 13.4766 15.5621 13.4681 15.5791C13.4766 15.5621 13.4816 15.5438 13.4929 15.5296L12.9245 16.2639C12.9013 16.2937 12.8843 16.328 12.8746 16.3645C12.8648 16.4011 12.8625 16.4392 12.8677 16.4767L13.1494 18.5082C13.1546 18.5459 13.1673 18.5821 13.1867 18.6149C13.2061 18.6476 13.2318 18.6761 13.2624 18.6988C13.3248 18.745 13.4029 18.7647 13.4798 18.7538L15.8455 18.4347L16.1667 20.7514C16.172 20.7891 16.1848 20.8253 16.2042 20.858C16.2237 20.8906 16.2495 20.9191 16.2801 20.9417C16.33 20.9786 16.3902 20.999 16.4523 20.9999H16.4626C16.4744 20.9998 16.4862 20.9988 16.4979 20.9971L18.5717 20.7172C18.6486 20.707 18.7184 20.6671 18.7662 20.606L19.3345 19.8718C19.3572 19.8423 19.374 19.8088 19.3839 19.7729C19.3943 19.7359 19.3969 19.697 19.3913 19.6589L19.1597 17.9872L20.8672 17.757C20.944 17.7468 21.0137 17.7067 21.0613 17.6455L21.6296 16.9112C21.6529 16.8814 21.67 16.8472 21.6798 16.8106C21.6897 16.7741 21.6922 16.7359 21.6871 16.6984L21.4048 14.6666C21.3996 14.629 21.3869 14.5928 21.3675 14.5602C21.3481 14.5276 21.3224 14.4992 21.2918 14.4767C21.2294 14.4303 21.1513 14.4103 21.0744 14.4209L18.7086 14.7404L18.3874 12.4237C18.3822 12.386 18.3696 12.3498 18.3502 12.3171C18.3308 12.2844 18.305 12.256 18.2744 12.2334C18.2248 12.1968 18.1649 12.1765 18.1032 12.1755H18.0912H18.0916Z"
      fill="#F09104" />
    <path fill-rule="evenodd" clip-rule="evenodd"
      d="M18.3534 17.8273L18.5969 18.0031L18.0561 18.6801L18.7685 19.1941L18.5839 19.4253L17.8712 18.9114L17.3304 19.5884L17.0868 19.413L17.628 18.7356L16.9153 18.2216L17.1002 17.9904L17.8126 18.5047L18.3534 17.8273ZM15.5662 15.6857L15.791 17.2467L14.1485 17.4602L13.9233 15.8993L15.5662 15.6857ZM15.3049 16.013L14.2679 16.1478L14.4098 17.133L15.4465 16.9982L15.3046 16.013H15.3049ZM19.9489 15.0373C20.4473 14.9723 20.9065 15.3038 20.9747 15.7775C21.0428 16.2505 20.6944 16.6872 20.1956 16.7521C19.6975 16.8171 19.2379 16.4856 19.1698 16.0123C19.1017 15.5385 19.4504 15.1022 19.9489 15.0373ZM20.6718 15.8167C20.6266 15.5025 20.3206 15.2819 19.9902 15.325C19.6598 15.368 19.4275 15.6586 19.4727 15.9727C19.5182 16.2869 19.8239 16.5075 20.1543 16.4641C20.4847 16.4214 20.717 16.1309 20.6718 15.8167ZM16.9795 12.8816L18.2453 14.398L16.2344 14.6596L16.9795 12.8816ZM17.0681 13.4552L16.7123 14.3045L17.6728 14.1795L17.0681 13.4552Z"
      fill="currentColor" />
  </symbol>

  <symbol id="singleplayer" viewBox="0 0 24 24" fill="none">
    <path fill-rule="evenodd" clip-rule="evenodd"
      d="M9.64962 12.8931C10.8882 12.8931 11.4238 13.8921 11.578 14.2282C11.824 14.7652 12.3644 15.9314 12.6247 17.8819C12.717 18.5817 12.8356 20.2256 12.0799 20.7362C11.84 20.8977 10.6604 21.0471 10.5534 20.986C10.2572 20.8176 9.95622 19.4539 9.51667 18.7393V18.7341C9.4175 18.564 9.35427 18.4644 9.19014 18.3669C9.02125 18.2656 8.75622 18.2846 8.29632 18.2846H5.39614C4.9371 18.2846 4.67164 18.2656 4.50232 18.3669C4.33862 18.4644 4.27539 18.564 4.17579 18.7341V18.7393C3.73667 19.4539 3.43527 20.818 3.13949 20.986C3.03209 21.0471 1.85245 20.8977 1.61253 20.7362C0.856851 20.2256 0.975941 18.5817 1.06775 17.8823C1.32845 15.9314 1.8689 14.7652 2.11488 14.2282C2.26861 13.8921 2.8043 12.8931 4.04328 12.8931C4.53826 12.8931 4.97738 13.1689 5.4165 13.4548C5.4165 13.4548 6.04053 13.4115 6.67626 13.4045L6.84948 13.4032C7.5402 13.4032 8.27596 13.4552 8.27596 13.4552C8.71508 13.1694 9.1542 12.8931 9.64962 12.8931ZM9.47856 15.7469C8.85929 15.7469 8.55269 16.2064 8.36907 16.4814C8.31147 16.568 8.21447 16.7135 8.15254 16.7343C8.10751 16.7135 8.0105 16.5684 7.95334 16.4818C7.76972 16.2068 7.46312 15.7469 6.84471 15.7469C6.22544 15.7469 5.91927 16.2068 5.73609 16.4818C5.67849 16.5684 5.58192 16.7131 5.52 16.7343C5.47539 16.7135 5.37882 16.5684 5.32122 16.4818C5.13804 16.2068 4.83187 15.7469 4.2126 15.7469C3.59376 15.7469 3.28759 16.2068 3.10398 16.4818C3.04638 16.5684 2.94981 16.7131 2.90694 16.7334C2.90694 16.7334 2.90391 16.7343 2.89698 16.7343C2.75341 16.7343 2.61572 16.7913 2.51421 16.8928C2.41269 16.9944 2.35566 17.132 2.35566 17.2756C2.35566 17.4192 2.41269 17.5569 2.51421 17.6584C2.61572 17.7599 2.75341 17.8169 2.89698 17.8169C3.51538 17.8169 3.82198 17.357 4.0056 17.082C4.06276 16.9954 4.15933 16.8504 4.22126 16.8296C4.26587 16.8504 4.36287 16.9954 4.42047 17.082C4.60365 17.357 4.91025 17.8169 5.52909 17.8169C6.14749 17.8169 6.4541 17.357 6.63771 17.082C6.69488 16.9954 6.79145 16.8508 6.85338 16.8296C6.89755 16.8504 6.99455 16.9954 7.05258 17.082C7.23533 17.357 7.54193 17.8169 8.1612 17.8169C8.78047 17.8169 9.08664 17.357 9.27026 17.0825C9.32786 16.9959 9.42486 16.8504 9.48765 16.8296C9.53226 16.8504 9.62883 16.9959 9.68686 17.0825C9.87004 17.357 10.1766 17.8169 10.7959 17.8169C11.0947 17.8169 11.3329 17.5744 11.3329 17.2756C11.3329 16.9768 11.0861 16.7343 10.7873 16.7343C10.7422 16.7135 10.6452 16.568 10.588 16.4814C10.404 16.2064 10.0974 15.7469 9.47856 15.7469ZM9.34778 13.9887C8.89523 13.9887 8.65922 14.2373 8.48643 14.4187C8.33573 14.5772 8.26211 14.647 8.09581 14.647C7.92909 14.647 7.85547 14.5777 7.7052 14.4187C7.53284 14.2373 7.29639 13.9887 6.84428 13.9887C6.3926 13.9887 6.15659 14.2373 5.9838 14.4187C5.83396 14.5772 5.76034 14.647 5.59405 14.647C5.42776 14.647 5.35457 14.5777 5.2043 14.4187C5.03194 14.2373 4.79549 13.9887 4.34338 13.9887C3.89127 13.9887 3.65526 14.2373 3.48247 14.4187C3.33263 14.5772 3.25901 14.647 3.09315 14.647H2.89698C2.81084 14.647 2.72823 14.6812 2.66731 14.7421C2.6064 14.803 2.57219 14.8856 2.57219 14.9718C2.57219 15.0579 2.6064 15.1405 2.66731 15.2014C2.72823 15.2623 2.81084 15.2965 2.89698 15.2965H3.09315C3.54483 15.2965 3.78171 15.0475 3.95363 14.8665C4.1039 14.708 4.17709 14.6383 4.34338 14.6383C4.50968 14.6383 4.5833 14.708 4.73357 14.8665C4.90592 15.0475 5.14194 15.2965 5.59405 15.2965C6.04616 15.2965 6.28261 15.0475 6.45496 14.8665C6.60523 14.708 6.67842 14.6383 6.84471 14.6383C7.01101 14.6383 7.08419 14.708 7.23446 14.8665C7.40769 15.0475 7.64327 15.2965 8.09625 15.2965C8.54792 15.2965 8.7848 15.0475 8.95673 14.8665C9.10743 14.708 9.18105 14.6383 9.34778 14.6383C9.5145 14.6383 9.58769 14.708 9.73839 14.8665C9.91162 15.0475 10.1472 15.2965 10.6002 15.2965H10.7959C10.8821 15.2965 10.9647 15.2623 11.0256 15.2014C11.0865 15.1405 11.1207 15.0579 11.1207 14.9718C11.1207 14.8856 11.0865 14.803 11.0256 14.7421C10.9647 14.6812 10.8821 14.647 10.7959 14.647H10.5997C10.433 14.647 10.3594 14.5777 10.2091 14.4187C10.0368 14.2373 9.79989 13.9887 9.34778 13.9887ZM18.2882 5.55799C19.5454 5.55799 20.0897 6.5722 20.2456 6.91302C20.4951 7.45867 21.0433 8.64178 21.3079 10.6217C21.401 11.3315 21.5223 12.9992 20.7549 13.5184C20.5115 13.683 19.3141 13.8341 19.2054 13.7722C18.9049 13.6007 18.5991 12.2175 18.1535 11.4913V11.4865C18.0526 11.3133 17.989 11.2128 17.8218 11.1132C17.6499 11.011 17.3814 11.0305 16.915 11.0305H13.8671C13.464 11.0283 13.2232 11.0188 13.0643 11.1128C12.8975 11.2124 12.8334 11.3137 12.7325 11.4865V11.4909C12.5203 11.8373 12.3402 12.331 12.1769 12.7736C11.5351 12.0231 10.6439 11.5939 9.64962 11.5939C9.60198 11.5939 9.55694 11.5983 9.51104 11.6004C9.51341 11.2731 9.53597 10.9462 9.5786 10.6217C9.84276 8.64178 10.391 7.45867 10.6409 6.91302C10.7972 6.5722 11.3411 5.55755 12.5983 5.55755C13.1006 5.55755 13.5467 5.83774 13.9927 6.12789C13.9927 6.12789 14.7389 6.07592 15.4404 6.07592C16.1403 6.07592 16.8942 6.12789 16.8942 6.12789C17.3403 5.83774 17.7859 5.55799 18.2882 5.55799ZM18.9278 6.10624H18.0535C17.9969 6.10599 17.9408 6.11728 17.8887 6.13943C17.8366 6.16157 17.7896 6.1941 17.7505 6.23504C17.7114 6.27597 17.681 6.32444 17.6613 6.3775C17.6415 6.43056 17.6328 6.48708 17.6356 6.54362L17.6824 7.57083C17.6928 7.80685 17.8933 7.99912 18.1297 7.99912H18.7754C19.0093 7.99912 19.2163 7.80944 19.2375 7.57689L19.331 6.54752C19.3367 6.49126 19.3305 6.43444 19.3128 6.38073C19.2951 6.32702 19.2664 6.27762 19.2284 6.23572C19.1902 6.19418 19.1437 6.16115 19.0919 6.13877C19.0402 6.11638 18.9842 6.10515 18.9278 6.1058V6.10624ZM12.8326 6.10624H11.9587C11.9023 6.10561 11.8464 6.11685 11.7946 6.13924C11.7428 6.16162 11.6963 6.19464 11.6581 6.23615C11.6202 6.278 11.5915 6.32733 11.5738 6.38096C11.5561 6.43459 11.5499 6.49133 11.5555 6.54752L11.649 7.57689C11.6707 7.80944 11.8773 7.99912 12.1111 7.99912H12.7568C12.9928 7.99912 13.1933 7.80685 13.2041 7.5704L13.2509 6.54406C13.2539 6.48741 13.2453 6.43075 13.2256 6.37756C13.2059 6.32437 13.1755 6.27577 13.1363 6.23476C13.0972 6.19374 13.05 6.16118 12.9978 6.13908C12.9455 6.11698 12.8893 6.1058 12.8326 6.10624ZM11.6404 3.51223L12.1847 4.28957C11.0545 4.42814 10.0926 5.13229 9.53226 6.23962L8.97751 5.44712C9.60848 4.43637 10.5491 3.76427 11.6404 3.51223ZM19.2305 3.5079C20.3257 3.75604 21.2698 4.42425 21.9016 5.43153L21.3469 6.22359C20.7861 5.12017 19.8199 4.42078 18.6845 4.28783L19.2305 3.5079ZM10.5859 2.0052L11.1043 2.74659C10.0415 3.06921 9.12086 3.73959 8.44442 4.68625L7.92259 3.94096C8.6315 3.03847 9.54395 2.37676 10.5859 2.0052ZM20.2863 2C21.3304 2.36766 22.245 3.02634 22.9553 3.92623L22.4339 4.67152C21.7566 3.72746 20.8329 3.06012 19.7675 2.74053L20.2863 2Z"
      fill="currentColor" />
  </symbol>

  <symbol id="scroll" width="32" height="40" viewBox="0 0 32 40" fill="none">
    <path fill-rule="evenodd" clip-rule="evenodd"
      d="M15.9998 22.6666V22.6666C12.0718 22.6666 8.85718 19.452 8.85718 15.524V9.80929C8.85718 5.88129 12.0718 2.66663 15.9998 2.66663V2.66663C19.9278 2.66663 23.1425 5.88129 23.1425 9.80929V15.524C23.1425 19.452 19.9278 22.6666 15.9998 22.6666Z"
      stroke="white" stroke-width="1.5" stroke-linecap="round" stroke-linejoin="round" />
    <path d="M12 26.6666L16 29.3333L20 26.6666" stroke="white" stroke-width="1.5"
      stroke-linecap="round" stroke-linejoin="round" />
    <path d="M15.9999 8.38135V11.2387" stroke="white" stroke-width="1.5" stroke-linecap="round"
      stroke-linejoin="round" />
  </symbol>

  <symbol id="slide-arrow" width="40" height="40" viewBox="0 0 40 40" fill="none"
    xmlns="http://www.w3.org/2000/svg">
    <path fill-rule="evenodd" clip-rule="evenodd"
      d="M40 20C40 31.0467 31.0467 40 20 40C8.95333 40 0 31.0467 0 20C0 8.95333 8.95333 0 20 0C31.0467 0 40 8.95333 40 20Z"
      fill="#2F2F3B" />
    <path d="M17 13L23.5 19.5L17 26" stroke="white" stroke-width="1.5" />
  </symbol>


  <symbol id="play" width="44" height="45" viewBox="0 0 44 45" fill="none">
    <path fill-rule="evenodd" clip-rule="evenodd"
      d="M40.8027 22.5741C40.8027 33.0286 32.3832 41.5019 21.9951 41.5019C11.607 41.5019 3.1875 33.0286 3.1875 22.5741C3.1875 12.1197 11.607 3.64636 21.9951 3.64636C32.3832 3.64636 40.8027 12.1197 40.8027 22.5741Z"
      fill="white" />
    <path
      d="M21.9951 43.0019C33.2206 43.0019 42.3027 33.848 42.3027 22.5741C42.3027 11.3003 33.2206 2.14636 21.9951 2.14636C10.7696 2.14636 1.6875 11.3003 1.6875 22.5741C1.6875 33.848 10.7696 43.0019 21.9951 43.0019Z"
      stroke="white" stroke-opacity="0.3" stroke-width="3" stroke-linecap="round"
      stroke-linejoin="round" />
    <path fill-rule="evenodd" clip-rule="evenodd"
      d="M19.7821 16.3869L27.8944 21.2155C28.9205 21.8254 28.9205 23.3207 27.8944 23.9306L19.7821 28.7593C18.7372 29.3818 17.4165 28.6226 17.4165 27.4007V17.7455C17.4165 16.5236 18.7372 15.7643 19.7821 16.3869Z"
      fill="#060608" />
  </symbol>
</svg>